
nColumns=19
nRows=43
DataType=double
version=3
OpenSimVersion=4.4-2022-10-11-798caa840
endheader
time	ground_force_calcn_r_vx	ground_force_calcn_r_vy	ground_force_calcn_r_vz	ground_force_calcn_r_px	ground_force_calcn_r_py	ground_force_calcn_r_pz	ground_force_calcn_r_mx	ground_force_calcn_r_my	ground_force_calcn_r_mz	ground_force_calcn_l_vx	ground_force_calcn_l_vy	ground_force_calcn_l_vz	ground_force_calcn_l_px	ground_force_calcn_l_py	ground_force_calcn_l_pz	ground_force_calcn_l_mx	ground_force_calcn_l_my	ground_force_calcn_l_mz
2.11	0	0	0	0	0	0	0	0	0	-51.7967	53.6018	10.5742	-0.09931520000000001	0	-0.782049	0.314116	-0.325063	-0.06412619999999999
2.12	-188.495	240.046	-59.3328	-0.14395	0	-0.355965	-0.18199	0.231762	-0.0572851	-333.518	452.571	41.7426	-0.13283	0	-0.801526	0.0610351	-0.0828222	-0.00763906
2.13	-418.331	596.77	-143.019	-0.155948	0	-0.358334	-0.464348	0.6624139999999999	-0.158751	-374.936	672.4930000000001	77.81480000000001	-0.146392	0	-0.805442	0.488988	-0.87706	-0.101485
2.14	-262.464	836.131	-165.944	-0.211958	0	-0.37292	-0.517499	1.64859	-0.327191	-140.105	772.833	151.641	-0.204383	0	-0.806725	0.44754	-2.46867	-0.484388
2.15	-72.55500000000001	1433.01	-140.641	-0.264897	0	-0.392926	0.121684	-2.40333	0.235873	-6.34832	1330.08	178.005	-0.259441	0	-0.798142	-0.00779912	1.63405	0.218685
2.16	-40.2205	1297.83	-74.5321	-0.270724	0	-0.398849	0.133213	-4.29849	0.246855	17.4472	1260.59	123.233	-0.266766	0	-0.79367	0.0594305	4.29394	0.419768
2.17	-226.93	816.452	-96.5063	-0.245161	0	-0.39348	0.934554	-3.36235	0.397437	-210.752	853.442	105.77	-0.236432	0	-0.795322	-1.12755	4.56602	0.565882
2.18	-308.693	562.044	-93.05249999999999	-0.215181	0	-0.388411	1.31432	-2.39301	0.396188	-309.576	602.016	87.0598	-0.19758	0	-0.797362	-1.66418	3.23624	0.468005
2.19	-252.881	513.674	-57.4294	-0.216858	0	-0.393062	1.41938	-2.88318	0.322343	-242.112	521.6079999999999	72.4952	-0.188011	0	-0.795855	-1.58594	3.41675	0.474875
2.2	-163.748	572.956	-53.1995	-0.235051	0	-0.398855	0.875937	-3.06491	0.28458	-160.042	576.0119999999999	87.4726	-0.200311	0	-0.79464	-1.03686	3.73179	0.566707
2.21	-106.004	635.433	-73.2192	-0.246991	0	-0.400993	0.487437	-2.92192	0.336685	-135.211	653.962	107.389	-0.207327	0	-0.794315	-0.7228019999999999	3.4959	0.5740690000000001
2.22	-72.16719999999999	708.8099999999999	-81.9498	-0.255224	0	-0.40337	0.321071	-3.15349	0.364594	-132.381	697.621	113.874	-0.209479	0	-0.7936299999999999	-0.6840079999999999	3.60459	0.588386
2.23	-43.8631	765.6420000000001	-85.05370000000001	-0.261296	0	-0.405468	0.224975	-3.927	0.436242	-99.8801	741.24	115.599	-0.215986	0	-0.79225	-0.591113	4.38683	0.68414
2.24	-33.1143	744.313	-81.85720000000001	-0.263132	0	-0.40655	0.208657	-4.68999	0.515791	-57.9239	768.827	109.322	-0.222352	0	-0.790328	-0.401337	5.32697	0.757459
2.25	-35.9497	694.807	-80.0445	-0.261887	0	-0.406601	0.265235	-5.12625	0.590564	-47.478	736.874	103.504	-0.22118	0	-0.789493	-0.358452	5.56329	0.781437
2.26	-36.506	658.593	-86.5095	-0.259045	0	-0.405714	0.28419	-5.12699	0.673455	-57.7454	673.296	101.104	-0.214225	0	-0.789596	-0.443188	5.16746	0.775961
2.27	-31.1785	647.006	-91.9573	-0.255549	0	-0.404677	0.242445	-5.03113	0.7150609999999999	-64.4773	633.978	100.256	-0.207953	0	-0.789565	-0.488387	4.8021	0.759398
2.28	-20.0386	652.6950000000001	-91.2457	-0.252686	0	-0.404104	0.15989	-5.2079	0.728056	-59.5112	631.662	99.49509999999999	-0.205741	0	-0.788942	-0.460389	4.88664	0.769711
2.29	-5.15334	652.25	-86.8939	-0.24988	0	-0.403698	0.0435393	-5.5107	0.734145	-47.8463	639.671	96.9674	-0.205053	0	-0.788012	-0.399774	5.34469	0.810198
2.3	6.18887	642.527	-86.6157	-0.245952	0	-0.402536	-0.0541365	-5.62043	0.757661	-37.5293	644.354	95.40000000000001	-0.203811	0	-0.78737	-0.335006	5.75183	0.851588
2.31	8.818110000000001	631.706	-91.83759999999999	-0.240998	0	-0.400489	-0.07751280000000001	-5.55281	0.807269	-31.3909	646.87	96.45310000000001	-0.201844	0	-0.787195	-0.288242	5.9398	0.885668
2.32	6.53681	626.827	-97.83920000000001	-0.236284	0	-0.398585	-0.0580865	-5.57003	0.869405	-27.8284	648.616	98.4217	-0.199539	0	-0.787297	-0.261018	6.08371	0.923149
2.33	4.13619	628.7619999999999	-103.153	-0.232514	0	-0.397292	-0.0372844	-5.66777	0.92984	-27.4136	649.933	101.211	-0.196574	0	-0.787503	-0.258012	6.11705	0.952576
2.34	2.09954	633.2430000000001	-107.666	-0.229555	0	-0.396375	-0.019126	-5.7686	0.980793	-31.6443	649.74	104.728	-0.192754	0	-0.787906	-0.292203	5.9997	0.96706
2.35	1.40644	643.029	-112.09	-0.22717	0	-0.395684	-0.0130507	-5.96683	1.04011	-37.7776	649.144	108.602	-0.188369	0	-0.788327	-0.338034	5.80855	0.9717750000000001
2.36	1.53638	657.713	-117.86	-0.224258	0	-0.394776	-0.0142181	-6.0867	1.09071	-42.8884	653.155	113.048	-0.18394	0	-0.788797	-0.371013	5.65022	0.977939
2.37	-3.53847	668.675	-126.042	-0.219404	0	-0.393255	0.031724	-5.99498	1.13003	-47.9131	660.216	117.997	-0.179867	0	-0.789106	-0.400752	5.52215	0.986947
2.38	-12.5628	672.519	-133.23	-0.213416	0	-0.391538	0.108935	-5.83154	1.15526	-53.4837	664.109	121.954	-0.176088	0	-0.789286	-0.43273	5.37322	0.986717
2.39	-20.2869	673.658	-137.298	-0.206804	0	-0.389929	0.170136	-5.64965	1.15145	-59.1	663.9	124.673	-0.17198	0	-0.789467	-0.449886	5.0538	0.949048
2.4	-27.5395	674.0309999999999	-140.659	-0.199506	0	-0.388173	0.216368	-5.29562	1.10511	-64.1844	661.376	126.553	-0.167644	0	-0.789677	-0.448811	4.62468	0.884922
2.41	-32.6064	674.337	-144.364	-0.192283	0	-0.38658	0.231492	-4.78752	1.02492	-68.7196	656.715	127.49	-0.163671	0	-0.78975	-0.443252	4.23591	0.822329
2.42	-33.43	676.032	-147.337	-0.185858	0	-0.385513	0.212939	-4.30613	0.938496	-72.9663	651.553	127.411	-0.160276	0	-0.789644	-0.440931	3.93729	0.769936
2.43	-32.9923	678.415	-149.133	-0.180264	0	-0.384615	0.188983	-3.88601	0.8542419999999999	-75.4884	648.514	127.185	-0.157688	0	-0.78948	-0.438248	3.76495	0.73837
2.44	-34.0398	677.189	-149.551	-0.175382	0	-0.384054	0.178333	-3.54776	0.783492	-75.27849999999999	647.623	128.004	-0.155983	0	-0.789345	-0.416554	3.58363	0.7083120000000001
2.45	-35.7718	673.463	-147.886	-0.171219	0	-0.383901	0.173655	-3.26934	0.717913	-73.4679	647.814	130.393	-0.154649	0	-0.789319	-0.366811	3.2344	0.651024
2.46	-37.6891	673.362	-144.75	-0.168198	0	-0.383841	0.175195	-3.13007	0.672859	-70.5288	648.155	133.811	-0.153712	0	-0.789499	-0.308924	2.83899	0.586108
2.47	-38.4527	677.955	-141.694	-0.16623	0	-0.383933	0.168701	-2.97434	0.6216429999999999	-66.626	648.38	137.562	-0.153111	0	-0.789762	-0.257801	2.50882	0.53228
2.48	-37.864	685.272	-141.924	-0.164573	0	-0.383953	0.133777	-2.42114	0.501433	-62.0852	648.934	140.471	-0.152867	0	-0.789942	-0.23276	2.43287	0.52663
2.49	-37.6722	694.732	-145.253	-0.162908	0	-0.383544	0.0825346	-1.52206	0.318229	-58.2921	650.561	142.676	-0.152748	0	-0.790184	-0.226351	2.52616	0.554016
2.5	-39.0824	704.6900000000001	-148.617	-0.161119	0	-0.382772	0.0378599	-0.682648	0.143968	-55.7547	652.8869999999999	144.237	-0.152649	0	-0.790528	-0.234856	2.75017	0.607573
2.51	-43.0634	714.073	-150.635	-0.1593	0	-0.381837	0.009349430000000001	-0.155031	0.0327042	-53.6213	654.899	144.408	-0.152468	0	-0.790866	-0.253098	3.0912	0.681622
2.52	-49.0999	720.923	-150.751	-0.15742	0	-0.381017	-0.00303445	0.0445541	-0.009316639999999999	-53.7546	656.8920000000001	142.785	-0.151964	0	-0.791143	-0.283638	3.46611	0.7534110000000001
2.53	-56.4808	724.951	-148.812	-0.155548	0	-0.380263	0.00222646	-0.0285774	0.00586614	-57.4221	660.5410000000001	139.141	-0.151361	0	-0.791484	-0.3293	3.78803	0.797936
